# xmcd CD database file
#
# Track frame offsets:
#	150
#	13872
#	29126
#	44043
#	55153
#	68975
#	82943
#	97845
#	110140
#	126175
#	140253
#	155286
#	171249
#	184219
#
# Disc length: 2638 seconds
#
# Revision: 1
# Processed by: cddbd v1.5.2PL0 Copyright (c) Steve Scherf et al.
# Submitted via: CDex 1.51
#
DISCID=c40a4c0e
DTITLE=Nelson Gonsalves - Sempre
DYEAR=1900
DGENRE=Jazz
TTITLE0=A Volta do Boêmio
TTITLE1=Renúncia
TTITLE2=Maria Bethânia
TTITLE3=Carlos Gardel
TTITLE4=Meu Vício é Você
TTITLE5=Pensando em Tí
TTITLE6=Dos meus Braços tu não sairás
TTITLE7=Mariposa
TTITLE8=Escultura
TTITLE9=Deusa do Asfalto
TTITLE10=Revolta
TTITLE11=Meu Dilema
TTITLE12=Fica comigo esta noite
TTITLE13=Naquela mesa
EXTD=
EXTT0=
EXTT1=
EXTT2=
EXTT3=
EXTT4=
EXTT5=
EXTT6=
EXTT7=
EXTT8=
EXTT9=
EXTT10=
EXTT11=
EXTT12=
EXTT13=
PLAYORDER=
